<?xml version="1.0" standalone="no"?>
<!DOCTYPE svg PUBLIC "-//W3C//DTD SVG 20010904//EN"
 "http://www.w3.org/TR/2001/REC-SVG-20010904/DTD/svg10.dtd">
<svg version="1.0" xmlns="http://www.w3.org/2000/svg"
 width="32.000000pt" height="32.000000pt" viewBox="0 0 32.000000 32.000000"
 preserveAspectRatio="xMidYMid meet">

<g transform="translate(0.000000,32.000000) scale(0.100000,-0.100000)"
fill="#000000" stroke="none">
<path d="M50 161 c0 -63 6 -70 44 -55 16 6 23 54 8 54 -4 0 -8 12 -7 28 0 21
-5 28 -22 30 -22 3 -23 0 -23 -57z m40 29 c0 -11 -7 -20 -15 -20 -8 0 -15 9
-15 20 0 11 7 20 15 20 8 0 15 -9 15 -20z m5 -55 c0 -11 -8 -21 -17 -23 -14
-3 -18 3 -18 23 0 20 4 26 18 23 9 -2 17 -12 17 -23z"/>
<path d="M130 160 c0 -33 4 -60 10 -60 6 0 10 25 10 55 0 31 4 55 10 55 17 0
24 -31 9 -42 -12 -8 -11 -9 1 -5 37 10 18 56 -22 57 -15 0 -18 -9 -18 -60z"/>
<path d="M210 160 l0 -60 38 1 c30 2 32 3 10 6 -27 4 -28 7 -28 59 0 30 -4 54
-10 54 -6 0 -10 -27 -10 -60z"/>
</g>
</svg>
